<svg width="1024" height="1024" viewBox="0 0 1024 1024" fill="none" xmlns="http://www.w3.org/2000/svg">
<g filter="url(#filter0_d_1_4)">
<path d="M473.5 378.5C399 358.5 434 287.5 434 287.5H435C504.5 317 473.5 378.5 473.5 378.5Z" fill="#433309" style="fill:#433309;fill:color(display-p3 0.2627 0.2000 0.0353);fill-opacity:1;"/>
<path d="M373.5 435.5C317 427.5 328.5 370 328.5 370H329.5C388 379 373.5 435.5 373.5 435.5Z" fill="#433309" style="fill:#433309;fill:color(display-p3 0.2627 0.2000 0.0353);fill-opacity:1;"/>
<path d="M408 292C334.5 284.5 352 220.5 352 220.5H352.5C423 226 408 292 408 292Z" fill="#433309" style="fill:#433309;fill:color(display-p3 0.2627 0.2000 0.0353);fill-opacity:1;"/>
<path d="M552 282C528 212.5 591 191.5 591 191.5H591.5C621.5 268 552 282 552 282Z" fill="#433309" style="fill:#433309;fill:color(display-p3 0.2627 0.2000 0.0353);fill-opacity:1;"/>
<path d="M610.5 293C595.5 219.5 671 219.5 671 219.5H671.5C685 293 610.5 293 610.5 293Z" fill="#433309" style="fill:#433309;fill:color(display-p3 0.2627 0.2000 0.0353);fill-opacity:1;"/>
</g>
<g filter="url(#filter1_d_1_4)">
<path d="M471 608C467.5 647 439.5 667 439.5 667L435.5 668.5C521.5 704 531 707.5 531 707.5C580.5 732 636 748.5 636 748.5C739.5 786 819.5 752.5 819.5 752.5L859.5 691.5C700 785.5 580.5 691.5 580.5 691.5C538 656 546 607.5 546 607.5C554.5 555.5 594 541.5 594 541.5C616 532 626 542.5 626 542.5C636 547 636 561.5 636 561.5C651.5 615.5 702 606 702 606C703 543.5 652.5 543.5 652.5 543.5C640.5 542.5 629.5 532 629.5 532C621 526 628.5 526 628.5 526C638 523.5 662 524.5 662 524.5C695 528 702 545.5 702 545.5C728 587 777 567 777 567C768 512 720 515.5 720 515.5C706.5 515.5 700 518 700 518C697 519 691.5 519 691.5 519C682 518.5 662.5 512.5 662.5 512.5C653.5 511 659 508 659 508C677 494 702.5 491 702.5 491C708 490 726 491 726 491C734 492 745.5 501.5 745.5 501.5C787 526 815 490.5 815 490.5C781 449 738 479 738 479C733 480.5 714.5 480 714.5 480C707 480 712 476 712 476C718.5 470.5 722.5 465.5 722.5 465.5C733.5 452.5 737.5 453 737.5 453C740 452 761.5 452 761.5 452C797.5 446 804 406 804 406C750.5 388 734 425.5 734 425.5C727.5 445 717.5 457 717.5 457C710.5 466.5 680 480 680 480C668 487 671.5 480 671.5 480C673.5 474.5 678 471 678 471C682.5 466 690 463.5 690 463.5C723.5 446.5 715.5 407 715.5 407C669.5 411 668 452.5 668 452.5C668 459.5 666.5 467 666.5 467C663.5 488.5 633.5 502 633.5 502C621 505 604 512.5 604 512.5C588 523 592 512.5 592 512.5C597.5 491.5 611 489.5 611 489.5C662 471.5 650 417 650 417C582.5 424 586.5 485.5 586.5 485.5C584 500.5 576.5 512.5 576.5 512.5C574 523 546 546 546 546C541.5 552 540.5 547 540.5 547C538 526 541.5 511 541.5 511C562 406.5 643 397 643 397C651 393.5 686 393 686 393C701 392 709 388 709 388H727.5C779.5 393 788 341 788 341C717.5 323 701 377 701 377C697.5 384 659 382.5 659 382.5C656 381.5 659 377.5 659 377.5C661.5 370 676 346.5 676 346.5C681.5 338 690.5 338 690.5 338C746 325 740 271.6 740 272C667.5 266 668.5 329.5 668.5 329.5C669.5 334 662.5 348 662.5 348C650.5 380 614.5 388.5 614.5 388.5C610 389.5 612 385.5 612 385.5C614 378 624 373.5 624 373.5C660.5 354.5 646 307.5 646 307.5C602 320 604 355.5 604 355.5V376C602 393.5 586 402 586 402C547.5 423.5 530.5 463 530.5 463H527C525.5 455 527 436 527 436C536.5 378.5 548.5 371.5 548.5 371.5C551 367 558.5 364.5 558.5 364.5C607 348 592.5 293.5 592.5 293.5C532.5 305 539 356 539 356V364.5C539.5 366 534 373.5 534 373.5C530.5 380.5 528.5 373.5 528.5 373.5C526.5 363.5 514.5 321 514.5 321C510 310.5 510 292 510 292C510.5 254 519.5 248 519.5 248C564 191.5 512 157.5 512 157.5C458.5 201.5 504.5 246.5 504.5 246.5C506 248.5 504.5 250.5 504.5 250.5C494.5 277.5 494.5 292 494.5 292C493 294 491 292 491 292C483 285 476.5 275 476.5 275V266C479 256 477.5 243.5 477.5 243.5C473.5 207.5 430.5 191.5 430.5 191.5C406 249 451.5 274 451.5 274C455 274 466 283.5 466 283.5C509.5 327.5 505.5 365.5 505.5 365.5V388.5C505.5 406.5 496.5 439.5 496.5 439.5C494.5 442.5 492 439.5 492 439.5C475.5 400 439 383 439 383C420.5 379 416 365.5 416 365.5C414.5 362.5 414.5 345.5 414.5 345.5C411.5 314 376.5 306.5 376.5 306.5C364.5 349.5 395 362 395 362C398 362.5 401.5 366 401.5 366V367.5C397.5 368 384 362.5 384 362.5C364 352.5 355 330 355 330C353.5 328 352.5 314 352.5 314C340 264.5 282 271 282 271C281 330.5 326 337 326 337C334 337.5 340 340 340 340C345.5 340.5 356 352.5 356 352.5C370.5 376 400.5 384 400.5 384C443.5 397.5 459.5 425 459.5 425C477.5 451.5 478.5 478.5 478.5 478.5C482 507.5 477.5 526 477.5 526H475.5C472.5 524.5 459.5 513.5 459.5 513.5C449 506 445.5 497 445.5 497V480.5C460 425 400.5 410.5 400.5 410.5C384 466 421.5 486 421.5 486C431 491.5 433.5 496.5 433.5 496.5V501H431C422.5 499 395.5 487.5 395.5 487.5C357 472 336.5 440.5 336.5 440.5C321 415 310.5 372 310.5 372C293 316 232.5 335.5 232.5 335.5C248.5 393 293 388 293 388C302.5 389 304.5 395 304.5 395C306 395 314.5 419 314.5 419L324 443.5V445C313 443.5 304.5 438.5 304.5 438.5C301 438.5 294 427 294 427C286 411 267.5 403.5 267.5 403.5C244.5 393.5 219.5 403.5 219.5 403.5C236 459 284 446 284 446C290 444.5 294 446 294 446C298 446 326.5 459 326.5 459C338 464 348 474.5 348 474.5C349 475.5 366 489 366 489C377.5 495 370.5 498.5 370.5 498.5C353.5 500 336 498.5 336 498.5C313 496 289 478 289 478C243 435.5 207 483 207 483C247 521 281 492 281 492H284.5C287 491 306.5 501 306.5 501C306.5 504 300 505.5 300 505.5C236 506.5 234 562.5 234 562.5C291 572.5 304.5 523.5 304.5 523.5C311 512 322 511 322 511C361 509.5 378.5 514 378.5 514V517C371 518 359.5 529 359.5 529L355.5 529.5C301.5 534 300.5 586.5 300.5 586.5C300 591 300 596 300 596L315.5 595.5C331.5 594 340.5 587 340.5 587C352 581 357.5 572.5 357.5 572.5C364.5 564.5 367 554 367 554C368.5 548.5 369 541 369 541C373 530.5 379 527 379 527C386.5 520.5 396 516 396 516H404C423.5 521 432 527.5 432 527.5C435 527.5 452 546 452 546C454 546.5 463.5 563.5 463.5 563.5C468 568 471 590 471 590V608Z" fill="#433309" style="fill:#433309;fill:color(display-p3 0.2627 0.2000 0.0353);fill-opacity:1;"/>
</g>
<g filter="url(#filter2_d_1_4)">
<path d="M172 694.5C316.5 628 435.5 668 435.5 668L436 668C449.5 672.5 531.5 707.5 531.5 707.5C518.852 704.221 512.348 702.478 509.008 701.551C535.972 710.369 584.5 741.5 584.5 741.5C714.5 817.5 810 763.5 810 763.5L752.5 817.5C687 835 551.5 761 551.5 761C335.5 631 188.5 722.5 188.5 722.5L172 694.5Z" fill="#433309" style="fill:#433309;fill:color(display-p3 0.2627 0.2000 0.0353);fill-opacity:1;"/>
<path d="M217 761L192 728V727.5C366.5 668 512.5 765 512.5 765C668.5 855.5 744.5 828.5 744.5 828.5L665 871C609 869 514.5 810.5 514.5 810.5C322.5 702.5 217 761 217 761Z" fill="#433309" style="fill:#433309;fill:color(display-p3 0.2627 0.2000 0.0353);fill-opacity:1;"/>
<path d="M265 809.5L221 765.5H221.5C364.5 736.5 501 827.5 501 827.5C595.626 882.444 643.094 878.821 653.687 876.996L656 876.5C656 876.5 655.24 876.729 653.687 876.996L546.5 900C527.5 901 468.5 863 468.5 863C349 790 265 809.5 265 809.5Z" fill="#433309" style="fill:#433309;fill:color(display-p3 0.2627 0.2000 0.0353);fill-opacity:1;"/>
<path d="M494.5 896C370 896.5 276 818 276 818V817C354 818 422.5 859.5 422.5 859.5C459.5 882 494.5 896 494.5 896Z" fill="#433309" style="fill:#433309;fill:color(display-p3 0.2627 0.2000 0.0353);fill-opacity:1;"/>
</g>
<g filter="url(#filter3_d_1_4)">
<circle cx="512" cy="512" r="395" stroke="#433309" style="stroke:#433309;stroke:color(display-p3 0.2627 0.2000 0.0353);stroke-opacity:1;" stroke-width="30" shape-rendering="crispEdges"/>
</g>
<defs>
<filter id="filter0_d_1_4" x="319.537" y="191.5" width="361.598" height="260" filterUnits="userSpaceOnUse" color-interpolation-filters="sRGB">
<feFlood flood-opacity="0" result="BackgroundImageFix"/>
<feColorMatrix in="SourceAlpha" type="matrix" values="0 0 0 0 0 0 0 0 0 0 0 0 0 0 0 0 0 0 127 0" result="hardAlpha"/>
<feOffset dy="8"/>
<feGaussianBlur stdDeviation="4"/>
<feComposite in2="hardAlpha" operator="out"/>
<feColorMatrix type="matrix" values="0 0 0 0 0 0 0 0 0 0 0 0 0 0 0 0 0 0 0.24 0"/>
<feBlend mode="normal" in2="BackgroundImageFix" result="effect1_dropShadow_1_4"/>
<feBlend mode="normal" in="SourceGraphic" in2="effect1_dropShadow_1_4" result="shape"/>
</filter>
<filter id="filter1_d_1_4" x="199" y="157.5" width="668.5" height="624.771" filterUnits="userSpaceOnUse" color-interpolation-filters="sRGB">
<feFlood flood-opacity="0" result="BackgroundImageFix"/>
<feColorMatrix in="SourceAlpha" type="matrix" values="0 0 0 0 0 0 0 0 0 0 0 0 0 0 0 0 0 0 127 0" result="hardAlpha"/>
<feOffset dy="8"/>
<feGaussianBlur stdDeviation="4"/>
<feComposite in2="hardAlpha" operator="out"/>
<feColorMatrix type="matrix" values="0 0 0 0 0 0 0 0 0 0 0 0 0 0 0 0 0 0 0.24 0"/>
<feBlend mode="normal" in2="BackgroundImageFix" result="effect1_dropShadow_1_4"/>
<feBlend mode="normal" in="SourceGraphic" in2="effect1_dropShadow_1_4" result="shape"/>
</filter>
<filter id="filter2_d_1_4" x="164" y="656.072" width="654" height="259.947" filterUnits="userSpaceOnUse" color-interpolation-filters="sRGB">
<feFlood flood-opacity="0" result="BackgroundImageFix"/>
<feColorMatrix in="SourceAlpha" type="matrix" values="0 0 0 0 0 0 0 0 0 0 0 0 0 0 0 0 0 0 127 0" result="hardAlpha"/>
<feOffset dy="8"/>
<feGaussianBlur stdDeviation="4"/>
<feComposite in2="hardAlpha" operator="out"/>
<feColorMatrix type="matrix" values="0 0 0 0 0 0 0 0 0 0 0 0 0 0 0 0 0 0 0.24 0"/>
<feBlend mode="normal" in2="BackgroundImageFix" result="effect1_dropShadow_1_4"/>
<feBlend mode="normal" in="SourceGraphic" in2="effect1_dropShadow_1_4" result="shape"/>
</filter>
<filter id="filter3_d_1_4" x="94" y="102" width="836" height="836" filterUnits="userSpaceOnUse" color-interpolation-filters="sRGB">
<feFlood flood-opacity="0" result="BackgroundImageFix"/>
<feColorMatrix in="SourceAlpha" type="matrix" values="0 0 0 0 0 0 0 0 0 0 0 0 0 0 0 0 0 0 127 0" result="hardAlpha"/>
<feOffset dy="8"/>
<feGaussianBlur stdDeviation="4"/>
<feComposite in2="hardAlpha" operator="out"/>
<feColorMatrix type="matrix" values="0 0 0 0 0 0 0 0 0 0 0 0 0 0 0 0 0 0 0.24 0"/>
<feBlend mode="normal" in2="BackgroundImageFix" result="effect1_dropShadow_1_4"/>
<feBlend mode="normal" in="SourceGraphic" in2="effect1_dropShadow_1_4" result="shape"/>
</filter>
</defs>
</svg>
